# xmcd
# 
# Track frame offsets:
#     150
#     20702
#     44330
#     66487
#     86492
#     107020
#     128590
#     150792
#     174095
#     197857
#     220212
#     241862
# 
# Disc length: 3499
# 
# Revision: 10
# Processed by: cddbd v1.5.2PL0 Copyright (c) Steve Scherf et al.
# Submitted via: fre:ac v1.1beta1pre5
# 
DISCID=970da90c
DTITLE=Spyro Gyra - Heart Of The Night
DYEAR=1996
DGENRE=Jazz
TTITLE0=Heart Of The Night
TTITLE1=De La Luz
TTITLE2=Westwood Moon
TTITLE3=Midnight
TTITLE4=Playtime
TTITLE5=Surrender
TTITLE6=Valentino's
TTITLE7=Believe
TTITLE8=As We Sleep
TTITLE9=When Evening Falls
TTITLE10=J Squared
TTITLE11=Best Thing
EXTD=YEAR: 1996
EXTT0=
EXTT1=
EXTT2=
EXTT3=
EXTT4=
EXTT5=
EXTT6=
EXTT7=
EXTT8=
EXTT9=
EXTT10=
EXTT11=
PLAYORDER=
